<?xml version="1.0" encoding="UTF-8" standalone="no"?>
<!DOCTYPE svg PUBLIC "-//W3C//DTD SVG 1.1//EN"
 "http://www.w3.org/Graphics/SVG/1.1/DTD/svg11.dtd">
<!-- Generated by graphviz version 2.40.1 (20161225.0304)
 -->
<!-- Title: %3 Pages: 1 -->
<svg width="508pt" height="632pt"
 viewBox="0.00 0.00 508.00 631.80" xmlns="http://www.w3.org/2000/svg" xmlns:xlink="http://www.w3.org/1999/xlink">
<g id="graph0" class="graph" transform="scale(1 1) rotate(0) translate(4 627.8037)">
<title>%3</title>
<polygon fill="#ffffff" stroke="transparent" points="-4,4 -4,-627.8037 504,-627.8037 504,4 -4,4"/>
<polygon fill="#ffffff" fill-opacity="0.058824" stroke="transparent" points="212,-169 212,-184 289,-184 289,-169 212,-169"/>
<polygon fill="none" stroke="#000000" points="212,-169 212,-184 289,-184 289,-169 212,-169"/>
<text text-anchor="start" x="219" y="-175.6" font-family="Times,serif" font-weight="bold" font-size="8.00" fill="#000000">Connection Types</text>
<polygon fill="#ffffff" fill-opacity="0.058824" stroke="transparent" points="212,-154 212,-169 289,-169 289,-154 212,-154"/>
<polygon fill="none" stroke="#000000" points="212,-154 212,-169 289,-169 289,-154 212,-154"/>
<text text-anchor="start" x="236.5" y="-160.6" font-family="Times,serif" font-weight="bold" font-size="8.00" fill="#ff0000">FC 16G</text>
<polygon fill="#ffffff" fill-opacity="0.058824" stroke="transparent" points="212,-139 212,-154 289,-154 289,-139 212,-139"/>
<polygon fill="none" stroke="#000000" points="212,-139 212,-154 289,-154 289,-139 212,-139"/>
<text text-anchor="start" x="236.5" y="-145.6" font-family="Times,serif" font-weight="bold" font-size="8.00" fill="#1f4800">FC 32G</text>
<polygon fill="#ffffff" fill-opacity="0.058824" stroke="transparent" points="212,-124 212,-139 289,-139 289,-124 212,-124"/>
<polygon fill="none" stroke="#000000" points="212,-124 212,-139 289,-139 289,-124 212,-124"/>
<text text-anchor="start" x="218.5" y="-130.6" font-family="Times,serif" font-weight="bold" font-size="8.00" fill="#026ff0">SFP&#45;40/100&#45;SRBD</text>
<polygon fill="#ffffff" fill-opacity="0.058824" stroke="transparent" points="212,-109 212,-124 289,-124 289,-109 212,-109"/>
<polygon fill="none" stroke="#000000" points="212,-109 212,-124 289,-124 289,-109 212,-109"/>
<text text-anchor="start" x="223" y="-115.6" font-family="Times,serif" font-weight="bold" font-size="8.00" fill="#a52a2a">QSFP&#45;40G&#45;SR4</text>
<polygon fill="#ffffff" fill-opacity="0.058824" stroke="transparent" points="212,-94 212,-109 289,-109 289,-94 212,-94"/>
<polygon fill="none" stroke="#000000" points="212,-94 212,-109 289,-109 289,-94 212,-94"/>
<text text-anchor="start" x="221" y="-100.6" font-family="Times,serif" font-weight="bold" font-size="8.00" fill="#ff00ff">QSFP&#45;100G&#45;SR4</text>
<polygon fill="#ffffff" fill-opacity="0.058824" stroke="transparent" points="212,-79 212,-94 289,-94 289,-79 212,-79"/>
<polygon fill="none" stroke="#000000" points="212,-79 212,-94 289,-94 289,-79 212,-79"/>
<text text-anchor="start" x="235.5" y="-85.6" font-family="Times,serif" font-weight="bold" font-size="8.00" fill="#0000ff">FET10G</text>
<polygon fill="#ffffff" fill-opacity="0.058824" stroke="transparent" points="212,-64 212,-79 289,-79 289,-64 212,-64"/>
<polygon fill="none" stroke="#000000" points="212,-64 212,-79 289,-79 289,-64 212,-64"/>
<text text-anchor="start" x="227.5" y="-70.6" font-family="Times,serif" font-weight="bold" font-size="8.00" fill="#ffa500">SFP&#45;10G&#45;SR</text>
<polygon fill="#ffffff" fill-opacity="0.058824" stroke="transparent" points="212,-49 212,-64 289,-64 289,-49 212,-49"/>
<polygon fill="none" stroke="#000000" points="212,-49 212,-64 289,-64 289,-49 212,-49"/>
<text text-anchor="start" x="235" y="-55.6" font-family="Times,serif" font-weight="bold" font-size="8.00" fill="#800000">GX&#45;MM</text>
<polygon fill="#ffffff" fill-opacity="0.058824" stroke="transparent" points="212,-34 212,-49 289,-49 289,-34 212,-34"/>
<polygon fill="none" stroke="#000000" points="212,-34 212,-49 289,-49 289,-34 212,-34"/>
<text text-anchor="start" x="237.5" y="-40.6" font-family="Times,serif" font-weight="bold" font-size="8.00" fill="#33acff">GLC&#45;T</text>
<polygon fill="#ffffff" fill-opacity="0.058824" stroke="transparent" points="212,-19 212,-34 289,-34 289,-19 212,-19"/>
<polygon fill="none" stroke="#000000" points="212,-19 212,-34 289,-34 289,-19 212,-19"/>
<text text-anchor="start" x="215" y="-25.6" font-family="Times,serif" font-weight="bold" font-size="8.00" fill="#9c33ff">QSFP&#45;100G&#45;SR4&#45;S+</text>
<polygon fill="#ffffff" fill-opacity="0.058824" stroke="transparent" points="212,-4 212,-19 289,-19 289,-4 212,-4"/>
<polygon fill="none" stroke="#000000" points="212,-4 212,-19 289,-19 289,-4 212,-4"/>
<text text-anchor="start" x="226" y="-10.6" font-family="Times,serif" font-weight="bold" font-size="8.00" fill="#ff33e6">GLC&#45;SX&#45;MM</text>
<g id="clust1" class="cluster">
<title>cluster_DEVICEB</title>
<polygon fill="none" stroke="#000000" points="260,-411.8037 260,-615.8037 492,-615.8037 492,-411.8037 260,-411.8037"/>
<text text-anchor="start" x="342.5" y="-600.6037" font-family="Times,serif" font-size="14.00" fill="#000000">DEVICE&#45;B </text>
<text text-anchor="start" x="335.5" y="-585.6037" font-family="Times,serif" font-size="14.00" fill="#000000"> Arista C8704 </text>
<text text-anchor="start" x="313" y="-570.6037" font-family="Times,serif" font-size="14.00" fill="#000000"> Asset: ACME246439 </text>
<text text-anchor="start" x="318" y="-555.6037" font-family="Times,serif" font-size="14.00" fill="#000000"> SN: GGE23265L42 </text>
<text text-anchor="start" x="340.5" y="-540.6037" font-family="Times,serif" font-size="14.00" fill="#000000"> AT U02&#45;23 </text>
<text text-anchor="start" x="345" y="-525.6037" font-family="Times,serif" font-size="14.00" fill="#000000"> IP: 1.2.3.6</text>
</g>
<g id="clust2" class="cluster">
<title>cluster_DEVICED</title>
<polygon fill="none" stroke="#000000" points="260,-199.8037 260,-403.8037 492,-403.8037 492,-199.8037 260,-199.8037"/>
<text text-anchor="start" x="342" y="-388.6037" font-family="Times,serif" font-size="14.00" fill="#000000">DEVICE&#45;D </text>
<text text-anchor="start" x="335.5" y="-373.6037" font-family="Times,serif" font-size="14.00" fill="#000000"> Arista C8704 </text>
<text text-anchor="start" x="313" y="-358.6037" font-family="Times,serif" font-size="14.00" fill="#000000"> Asset: ACME246420 </text>
<text text-anchor="start" x="313.5" y="-343.6037" font-family="Times,serif" font-size="14.00" fill="#000000"> SN: GGE23275WPH </text>
<text text-anchor="start" x="339.5" y="-328.6037" font-family="Times,serif" font-size="14.00" fill="#000000"> NG U02&#45;23 </text>
<text text-anchor="start" x="345" y="-313.6037" font-family="Times,serif" font-size="14.00" fill="#000000"> IP: 1.2.3.7</text>
</g>
<g id="clust3" class="cluster">
<title>cluster_DEVICEA</title>
<polygon fill="none" stroke="#000000" points="8,-411.8037 8,-615.8037 240,-615.8037 240,-411.8037 8,-411.8037"/>
<text text-anchor="start" x="90" y="-600.6037" font-family="Times,serif" font-size="14.00" fill="#000000">DEVICE&#45;A </text>
<text text-anchor="start" x="65.5" y="-585.6037" font-family="Times,serif" font-size="14.00" fill="#000000"> Cisco B4436C&#45;GL2 </text>
<text text-anchor="start" x="61" y="-570.6037" font-family="Times,serif" font-size="14.00" fill="#000000"> Asset: ACME246346 </text>
<text text-anchor="start" x="61.5" y="-555.6037" font-family="Times,serif" font-size="14.00" fill="#000000"> SN: SGD7240339NT </text>
<text text-anchor="start" x="97.5" y="-540.6037" font-family="Times,serif" font-size="14.00" fill="#000000"> AT U26 </text>
<text text-anchor="start" x="89.5" y="-525.6037" font-family="Times,serif" font-size="14.00" fill="#000000"> IP: 1.2.3.11</text>
</g>
<g id="clust4" class="cluster">
<title>cluster_DEVICEC</title>
<polygon fill="none" stroke="#000000" points="8,-199.8037 8,-403.8037 240,-403.8037 240,-199.8037 8,-199.8037"/>
<text text-anchor="start" x="90.5" y="-388.6037" font-family="Times,serif" font-size="14.00" fill="#000000">DEVICE&#45;C </text>
<text text-anchor="start" x="65.5" y="-373.6037" font-family="Times,serif" font-size="14.00" fill="#000000"> Cisco B4436C&#45;GL2 </text>
<text text-anchor="start" x="61" y="-358.6037" font-family="Times,serif" font-size="14.00" fill="#000000"> Asset: ACME246347 </text>
<text text-anchor="start" x="60.5" y="-343.6037" font-family="Times,serif" font-size="14.00" fill="#000000"> SN: SGD724030V6U </text>
<text text-anchor="start" x="96.5" y="-328.6037" font-family="Times,serif" font-size="14.00" fill="#000000"> NG U26 </text>
<text text-anchor="start" x="89.5" y="-313.6037" font-family="Times,serif" font-size="14.00" fill="#000000"> IP: 1.2.3.12</text>
</g>
<!-- DEVICE&#45;B.Eth3/3 -->
<g id="node1" class="node">
<title>DEVICE&#45;B.Eth3/3</title>
<polygon fill="none" stroke="#000000" points="484,-484.3479 484,-499.2596 420.7351,-509.8037 331.2649,-509.8037 268,-499.2596 268,-484.3479 331.2649,-473.8037 420.7351,-473.8037 484,-484.3479"/>
<text text-anchor="middle" x="376" y="-488.1037" font-family="Times,serif" font-size="14.00" fill="#000000">Eth3/3</text>
</g>
<!-- DEVICE&#45;B.Eth3/2 -->
<g id="node2" class="node">
<title>DEVICE&#45;B.Eth3/2</title>
<polygon fill="none" stroke="#000000" points="484,-430.3479 484,-445.2596 420.7351,-455.8037 331.2649,-455.8037 268,-445.2596 268,-430.3479 331.2649,-419.8037 420.7351,-419.8037 484,-430.3479"/>
<text text-anchor="middle" x="376" y="-434.1037" font-family="Times,serif" font-size="14.00" fill="#000000">Eth3/2</text>
</g>
<!-- DEVICE&#45;D.Eth4/3 -->
<g id="node3" class="node">
<title>DEVICE&#45;D.Eth4/3</title>
<polygon fill="none" stroke="#000000" points="484,-272.3479 484,-287.2596 420.7351,-297.8037 331.2649,-297.8037 268,-287.2596 268,-272.3479 331.2649,-261.8037 420.7351,-261.8037 484,-272.3479"/>
<text text-anchor="middle" x="376" y="-276.1037" font-family="Times,serif" font-size="14.00" fill="#000000">Eth4/3</text>
</g>
<!-- DEVICE&#45;D.Eth4/2 -->
<g id="node4" class="node">
<title>DEVICE&#45;D.Eth4/2</title>
<polygon fill="none" stroke="#000000" points="484,-218.3479 484,-233.2596 420.7351,-243.8037 331.2649,-243.8037 268,-233.2596 268,-218.3479 331.2649,-207.8037 420.7351,-207.8037 484,-218.3479"/>
<text text-anchor="middle" x="376" y="-222.1037" font-family="Times,serif" font-size="14.00" fill="#000000">Eth4/2</text>
</g>
<!-- DEVICE&#45;A.Eth1/33 -->
<g id="node5" class="node">
<title>DEVICE&#45;A.Eth1/33</title>
<polygon fill="none" stroke="#000000" points="232,-484.3479 232,-499.2596 168.7351,-509.8037 79.2649,-509.8037 16,-499.2596 16,-484.3479 79.2649,-473.8037 168.7351,-473.8037 232,-484.3479"/>
<text text-anchor="middle" x="124" y="-488.1037" font-family="Times,serif" font-size="14.00" fill="#000000">Eth1/33</text>
</g>
<!-- DEVICE&#45;A.Eth1/33&#45;&#45;DEVICE&#45;B.Eth3/3 -->
<g id="edge1" class="edge">
<title>DEVICE&#45;A.Eth1/33&#45;&#45;DEVICE&#45;B.Eth3/3</title>
<path fill="none" stroke="#026ff0" d="M169.5398,-509.7565C239.1202,-536.2046 260.8162,-536.2195 330.3425,-509.8012"/>
</g>
<!-- DEVICE&#45;A.Eth2/32 -->
<g id="node6" class="node">
<title>DEVICE&#45;A.Eth2/32</title>
<polygon fill="none" stroke="#000000" points="232,-430.3479 232,-445.2596 168.7351,-455.8037 79.2649,-455.8037 16,-445.2596 16,-430.3479 79.2649,-419.8037 168.7351,-419.8037 232,-430.3479"/>
<text text-anchor="middle" x="124" y="-434.1037" font-family="Times,serif" font-size="14.00" fill="#000000">Eth2/32</text>
</g>
<!-- DEVICE&#45;A.Eth2/32&#45;&#45;DEVICE&#45;D.Eth4/3 -->
<g id="edge2" class="edge">
<title>DEVICE&#45;A.Eth2/32&#45;&#45;DEVICE&#45;D.Eth4/3</title>
<path fill="none" stroke="#ffa500" d="M140.5777,-419.5946C221.9866,-330.2953 246.0142,-306.8021 302.1405,-293.0126"/>
</g>
<!-- DEVICE&#45;C.Eth1/33 -->
<g id="node7" class="node">
<title>DEVICE&#45;C.Eth1/33</title>
<polygon fill="none" stroke="#000000" points="232,-272.3479 232,-287.2596 168.7351,-297.8037 79.2649,-297.8037 16,-287.2596 16,-272.3479 79.2649,-261.8037 168.7351,-261.8037 232,-272.3479"/>
<text text-anchor="middle" x="124" y="-276.1037" font-family="Times,serif" font-size="14.00" fill="#000000">Eth1/33</text>
</g>
<!-- DEVICE&#45;C.Eth1/33&#45;&#45;DEVICE&#45;B.Eth3/2 -->
<g id="edge3" class="edge">
<title>DEVICE&#45;C.Eth1/33&#45;&#45;DEVICE&#45;B.Eth3/2</title>
<path fill="none" stroke="#a52a2a" d="M197.8867,-293.0193C254.0135,-306.8146 278.0437,-330.3264 359.5092,-419.6899"/>
</g>
<!-- DEVICE&#45;C.Eth2/32 -->
<g id="node8" class="node">
<title>DEVICE&#45;C.Eth2/32</title>
<polygon fill="none" stroke="#000000" points="232,-218.3479 232,-233.2596 168.7351,-243.8037 79.2649,-243.8037 16,-233.2596 16,-218.3479 79.2649,-207.8037 168.7351,-207.8037 232,-218.3479"/>
<text text-anchor="middle" x="124" y="-222.1037" font-family="Times,serif" font-size="14.00" fill="#000000">Eth2/32</text>
</g>
<!-- DEVICE&#45;C.Eth2/32&#45;&#45;DEVICE&#45;D.Eth4/2 -->
<g id="edge4" class="edge">
<title>DEVICE&#45;C.Eth2/32&#45;&#45;DEVICE&#45;D.Eth4/2</title>
<path fill="none" stroke="#33acff" d="M169.5398,-207.8509C239.1202,-181.4029 260.8162,-181.388 330.3425,-207.8062"/>
</g>
</g>
</svg>
